<svg id="Layer_1" data-name="Layer 1" xmlns="http://www.w3.org/2000/svg" viewBox="0 0 1783.66 215.71"><path d="M103.66,4.61,80,107.94l134.92-103,74-.33L144.79,109.91c22.38-3.29,50,1.32,59.56,20.07l40.48,79.64H179l-49-88.85-20.73,15.14c-15.46,11.51-29.61,15.79-39.49,15.46L56.27,209.62H0l47.39-205Z"/><path d="M373.5,4.61,348.82,111.23C357,96.42,370.53,87.53,386,87.53h98.39L503.48,4.61h56.6l-47.39,205h-56.6l18.43-79.31h-130l-18.43,79.31h-56.6l47.39-205Z"/><path d="M771.35,4.61h66.47L725.28,126.36a64.81,64.81,0,0,1-16.79,12.84l-16.12,70.42h-56.6l16.12-70.42c-4.93-3.29-8.22-7.9-10.86-12.84L584.43,4.61h66.48l30.27,78.32c2.3,5.92,6.25,9.21,10.86,9.21s9.87-3.29,14.81-9.21Z"/><path d="M861.19,4.61h56.6L880.93,163.88h132l-10.53,45.74H858.23c-26.66,0-40.15-18.43-33.57-46.07Z"/><path d="M1140.57,4.61l-47.38,205h-56.6L1084,4.61Z"/><path d="M1134.32,190.53C1178.74,83.25,1231.4.33,1305.44.33c73.71,0,88.52,82.92,82.92,190.2l-2.63,19.09h-58.9l1.64-17.11c.66-10.2,1.32-20.73,1.65-30.94H1205.73c-4.28,10.21-8.89,20.74-12.84,30.94L1187,209.62h-59.23Zm90.49-69.43h104.65c-2.63-39.82-12.18-70.09-36.2-70.09S1245.87,81.28,1224.81,121.1Z"/><path d="M1631.22,152.69c7.9-.66,10.2-6.91,13.16-19.75L1674,4.61h56.6l-31.92,138.86c-10.53,45.75-40.15,70.76-75.36,70.76-24.35,0-40.15-10.86-53.64-39.49l-31.59-78.65c-4.94-12.51-9.87-38.83-19.09-38.17-7.89.65-10.2,6.91-13.16,19.74l-30.6,132h-56.6l31.92-138.87C1461.42,25,1490.7,0,1525.92,0c24.35,0,41.79,9.87,53.63,39.49l31.59,78.65C1617.07,130.31,1622,153.35,1631.22,152.69Z"/><path d="M1782.65,188.77c-4,16.29-13,26.94-37.59,26.94s-29.28-10.65-25.62-26.94c3.66-15,13-25.62,37.6-25.62C1782,163.15,1786,173.8,1782.65,188.77Z"/></svg>